<svg width="847" height="820" viewBox="0 0 847 820" fill="none" xmlns="http://www.w3.org/2000/svg">
<g opacity="0.1" clip-path="url(#clip0_19_357)">
<path d="M834.187 508.133C841.062 412.921 679.062 323.636 472.35 308.71C265.638 293.784 92.4912 358.869 85.6162 454.08C78.7412 549.292 240.741 638.577 447.454 653.503C654.166 668.429 827.312 603.344 834.187 508.133Z" stroke="#7587FF" stroke-width="2.70924" stroke-miterlimit="10"/>
<path d="M820.387 488.305C823.085 395.217 661.406 315.006 459.268 309.148C257.129 303.29 91.0765 374.003 88.3788 467.091C85.6811 560.178 247.36 640.39 449.498 646.248C651.637 652.106 817.689 581.392 820.387 488.305Z" stroke="#7587FF" stroke-width="2.70924" stroke-miterlimit="10"/>
<path d="M452.102 638.967C649.633 635.761 808.567 559.411 807.09 468.435C805.613 377.459 644.285 306.308 446.754 309.514C249.223 312.721 90.289 389.071 91.7658 480.047C93.2426 571.023 254.571 642.174 452.102 638.967Z" stroke="#7587FF" stroke-width="2.70924" stroke-miterlimit="10"/>
<path d="M454.272 631.714C647.218 619.439 799.048 537.45 793.395 448.586C787.742 359.722 626.746 297.634 433.8 309.908C240.855 322.182 89.0242 404.171 94.6773 493.036C100.33 581.9 261.326 643.988 454.272 631.714Z" stroke="#7587FF" stroke-width="2.70924" stroke-miterlimit="10"/>
<path d="M456.149 624.78C644.532 603.449 789.284 515.841 779.463 429.102C769.641 342.362 608.965 289.337 420.583 310.667C232.2 331.997 87.4482 419.606 97.2696 506.345C107.091 593.085 267.767 646.11 456.149 624.78Z" stroke="#7587FF" stroke-width="2.70924" stroke-miterlimit="10"/>
<path d="M458.245 617.69C642.03 587.298 779.67 494.042 765.672 409.397C751.675 324.753 591.34 280.772 407.555 311.165C223.77 341.557 86.1306 434.813 100.128 519.458C114.126 604.103 274.46 648.083 458.245 617.69Z" stroke="#7587FF" stroke-width="2.70924" stroke-miterlimit="10"/>
<path d="M460.42 610.269C639.629 570.801 770.175 471.918 752.004 389.406C733.832 306.895 573.824 272.001 394.615 311.468C215.406 350.935 84.8589 449.818 103.03 532.33C121.202 614.842 281.211 649.736 460.42 610.269Z" stroke="#7587FF" stroke-width="2.70924" stroke-miterlimit="10"/>
<path d="M462.46 603.372C637.07 554.85 760.504 450.326 738.157 369.912C715.811 289.498 556.147 263.645 381.538 312.167C206.928 360.689 83.494 465.212 105.84 545.626C128.186 626.04 287.85 651.894 462.46 603.372Z" stroke="#7587FF" stroke-width="2.70924" stroke-miterlimit="10"/>
<path d="M464.813 595.339C634.821 537.728 751.134 427.565 724.606 349.281C698.079 270.998 538.755 254.24 368.747 311.851C198.739 369.461 82.425 479.625 108.953 557.908C135.481 636.191 294.805 652.95 464.813 595.339Z" stroke="#7587FF" stroke-width="2.70924" stroke-miterlimit="10"/>
<path d="M466.861 588.389C632.297 521.717 741.523 405.916 710.823 329.742C680.124 253.567 521.125 245.864 355.689 312.537C190.254 379.209 81.0283 495.01 111.728 571.184C142.427 647.359 301.425 655.062 466.861 588.389Z" stroke="#7587FF" stroke-width="2.70924" stroke-miterlimit="10"/>
<path d="M468.903 581.577C629.752 505.853 731.874 384.413 696.999 310.334C662.124 236.254 503.458 237.587 342.61 313.312C181.761 389.036 79.639 510.475 114.514 584.555C149.389 658.634 308.054 657.301 468.903 581.577Z" stroke="#7587FF" stroke-width="2.70924" stroke-miterlimit="10"/>
<path d="M471.149 573.894C627.402 489.091 722.408 362.007 683.352 290.045C644.296 218.082 485.966 228.491 329.714 313.294C173.461 398.097 78.4543 525.181 117.511 597.144C156.567 669.106 314.896 658.697 471.149 573.894Z" stroke="#7587FF" stroke-width="2.70924" stroke-miterlimit="10"/>
<path d="M473.162 567.061C624.836 473.203 712.757 340.501 669.54 270.663C626.323 200.825 468.333 220.298 316.66 314.156C164.987 408.014 77.0655 540.716 120.282 610.554C163.499 680.392 321.489 660.919 473.162 567.061Z" stroke="#7587FF" stroke-width="2.70924" stroke-miterlimit="10"/>
<path d="M475.31 559.096C622.392 456.146 703.202 317.794 655.805 250.078C608.407 182.363 450.75 210.925 303.669 313.875C156.587 416.824 75.7769 555.176 123.174 622.892C170.572 690.608 328.229 662.045 475.31 559.096Z" stroke="#7587FF" stroke-width="2.70924" stroke-miterlimit="10"/>
<path d="M477.416 551.975C619.915 439.96 693.619 295.963 642.041 230.347C590.462 164.732 433.131 202.345 290.633 314.36C148.135 426.374 74.43 570.372 126.009 635.987C177.588 701.603 334.918 663.989 477.416 551.975Z" stroke="#7587FF" stroke-width="2.70924" stroke-miterlimit="10"/>
<path d="M479.523 544.876C617.446 423.793 684.068 274.164 628.328 210.672C572.587 147.179 415.592 193.865 277.669 314.948C139.746 436.03 73.1241 585.659 128.865 649.152C184.605 712.644 341.601 665.958 479.523 544.876Z" stroke="#7587FF" stroke-width="2.70924" stroke-miterlimit="10"/>
<path d="M481.633 537.367C614.95 407.222 674.457 251.968 614.546 190.596C554.635 129.224 397.992 184.975 264.675 315.119C131.358 445.263 71.8509 600.517 131.762 661.889C191.674 723.261 348.316 667.511 481.633 537.367Z" stroke="#7587FF" stroke-width="2.70924" stroke-miterlimit="10"/>
<path d="M483.727 530.137C612.461 390.922 664.864 230.021 600.773 170.754C536.681 111.488 380.365 176.299 251.63 315.514C122.896 454.73 70.4926 615.631 134.584 674.897C198.676 734.164 354.992 669.352 483.727 530.137Z" stroke="#7587FF" stroke-width="2.70924" stroke-miterlimit="10"/>
<path d="M485.859 523.063C610.013 374.787 655.332 208.258 587.082 151.111C518.832 93.9645 362.858 167.839 238.703 316.116C114.549 464.392 69.23 630.92 137.48 688.067C205.73 745.214 361.705 671.339 485.859 523.063Z" stroke="#7587FF" stroke-width="2.70924" stroke-miterlimit="10"/>
<path d="M487.926 515.694C607.485 358.352 645.696 186.188 573.272 131.156C500.848 76.1236 345.215 159.062 225.656 316.404C106.098 473.746 67.8868 645.909 140.311 700.942C212.734 755.974 368.367 673.036 487.926 515.694Z" stroke="#7587FF" stroke-width="2.70924" stroke-miterlimit="10"/>
<path d="M490.051 508.327C605.014 341.927 636.117 164.134 559.521 111.215C482.925 58.296 327.635 150.29 212.672 316.69C97.7088 483.09 66.6062 660.884 143.202 713.803C219.798 766.722 375.088 674.727 490.051 508.327Z" stroke="#7587FF" stroke-width="2.70924" stroke-miterlimit="10"/>
<path d="M492.41 501.755C602.817 326.296 626.841 142.856 546.069 92.0307C465.298 41.2056 310.317 142.241 199.91 317.701C89.5028 493.16 65.4782 676.6 146.25 727.426C227.021 778.251 382.002 677.215 492.41 501.755Z" stroke="#7587FF" stroke-width="2.70924" stroke-miterlimit="10"/>
</g>
<defs>
<clipPath id="clip0_19_357">
<rect width="846.636" height="819.449" fill="white"/>
</clipPath>
</defs>
</svg>
