<svg width="714" height="820" viewBox="0 0 714 820" fill="none" xmlns="http://www.w3.org/2000/svg">
<g opacity="0.1" clip-path="url(#clip0_19_357)">
<path d="M701.187 508.133C708.062 412.921 546.062 323.636 339.35 308.71C132.638 293.784 -40.5088 358.869 -47.3838 454.08C-54.2588 549.292 107.741 638.577 314.454 653.503C521.166 668.429 694.312 603.344 701.187 508.133Z" stroke="#7587FF" stroke-width="2.70924" stroke-miterlimit="10"/>
<path d="M687.387 488.305C690.085 395.217 528.406 315.006 326.268 309.148C124.129 303.29 -41.9235 374.003 -44.6212 467.091C-47.3189 560.178 114.36 640.39 316.498 646.248C518.637 652.106 684.689 581.392 687.387 488.305Z" stroke="#7587FF" stroke-width="2.70924" stroke-miterlimit="10"/>
<path d="M319.102 638.967C516.633 635.761 675.567 559.411 674.09 468.435C672.613 377.459 511.285 306.308 313.754 309.514C116.223 312.721 -42.711 389.071 -41.2342 480.047C-39.7574 571.023 121.571 642.174 319.102 638.967Z" stroke="#7587FF" stroke-width="2.70924" stroke-miterlimit="10"/>
<path d="M321.272 631.714C514.218 619.439 666.048 537.45 660.395 448.586C654.742 359.722 493.746 297.634 300.8 309.908C107.855 322.182 -43.9758 404.171 -38.3227 493.036C-32.6695 581.9 128.326 643.988 321.272 631.714Z" stroke="#7587FF" stroke-width="2.70924" stroke-miterlimit="10"/>
<path d="M323.149 624.78C511.532 603.449 656.284 515.841 646.463 429.102C636.641 342.362 475.965 289.337 287.583 310.667C99.2004 331.997 -45.5518 419.606 -35.7304 506.345C-25.909 593.085 134.767 646.11 323.149 624.78Z" stroke="#7587FF" stroke-width="2.70924" stroke-miterlimit="10"/>
<path d="M325.245 617.69C509.03 587.298 646.67 494.042 632.672 409.397C618.675 324.753 458.34 280.772 274.555 311.165C90.7704 341.557 -46.8694 434.813 -32.8718 519.458C-18.8741 604.103 141.46 648.083 325.245 617.69Z" stroke="#7587FF" stroke-width="2.70924" stroke-miterlimit="10"/>
<path d="M327.42 610.269C506.629 570.801 637.175 471.918 619.004 389.406C600.832 306.895 440.824 272.001 261.615 311.468C82.4056 350.935 -48.1411 449.818 -29.9696 532.33C-11.7981 614.842 148.211 649.736 327.42 610.269Z" stroke="#7587FF" stroke-width="2.70924" stroke-miterlimit="10"/>
<path d="M329.46 603.372C504.07 554.85 627.504 450.326 605.157 369.912C582.811 289.498 423.147 263.645 248.538 312.167C73.928 360.689 -49.506 465.212 -27.1598 545.626C-4.81369 626.04 154.85 651.894 329.46 603.372Z" stroke="#7587FF" stroke-width="2.70924" stroke-miterlimit="10"/>
<path d="M331.813 595.339C501.821 537.728 618.134 427.565 591.606 349.281C565.079 270.998 405.755 254.24 235.747 311.851C65.7387 369.461 -50.575 479.625 -24.0472 557.908C2.48068 636.191 161.805 652.95 331.813 595.339Z" stroke="#7587FF" stroke-width="2.70924" stroke-miterlimit="10"/>
<path d="M333.861 588.389C499.297 521.717 608.523 405.916 577.823 329.742C547.124 253.567 388.125 245.864 222.689 312.537C57.2536 379.209 -51.9717 495.01 -21.2725 571.184C9.42677 647.359 168.425 655.062 333.861 588.389Z" stroke="#7587FF" stroke-width="2.70924" stroke-miterlimit="10"/>
<path d="M335.903 581.577C496.752 505.853 598.874 384.413 563.999 310.334C529.124 236.254 370.458 237.587 209.61 313.312C48.7607 389.036 -53.361 510.475 -18.4861 584.555C16.3888 658.634 175.054 657.301 335.903 581.577Z" stroke="#7587FF" stroke-width="2.70924" stroke-miterlimit="10"/>
<path d="M338.149 573.894C494.402 489.091 589.408 362.007 550.352 290.045C511.296 218.082 352.966 228.491 196.714 313.294C40.4609 398.097 -54.5457 525.181 -15.4894 597.144C23.5669 669.106 181.896 658.697 338.149 573.894Z" stroke="#7587FF" stroke-width="2.70924" stroke-miterlimit="10"/>
<path d="M340.162 567.061C491.836 473.203 579.757 340.501 536.54 270.663C493.323 200.825 335.333 220.298 183.66 314.156C31.9867 408.014 -55.9345 540.716 -12.7176 610.554C30.4994 680.392 188.489 660.919 340.162 567.061Z" stroke="#7587FF" stroke-width="2.70924" stroke-miterlimit="10"/>
<path d="M342.31 559.096C489.392 456.146 570.202 317.794 522.805 250.078C475.407 182.363 317.75 210.925 170.669 313.875C23.5867 416.824 -57.2231 555.176 -9.82555 622.892C37.572 690.608 195.229 662.045 342.31 559.096Z" stroke="#7587FF" stroke-width="2.70924" stroke-miterlimit="10"/>
<path d="M344.416 551.975C486.915 439.96 560.619 295.963 509.041 230.347C457.462 164.732 300.131 202.345 157.633 314.36C15.1349 426.374 -58.57 570.372 -6.99124 635.987C44.5875 701.603 201.918 663.989 344.416 551.975Z" stroke="#7587FF" stroke-width="2.70924" stroke-miterlimit="10"/>
<path d="M346.523 544.876C484.446 423.793 551.068 274.164 495.328 210.672C439.587 147.179 282.592 193.865 144.669 314.948C6.74608 436.03 -59.8759 585.659 -4.13523 649.152C51.6054 712.644 208.601 665.958 346.523 544.876Z" stroke="#7587FF" stroke-width="2.70924" stroke-miterlimit="10"/>
<path d="M348.633 537.367C481.95 407.222 541.457 251.968 481.546 190.596C421.635 129.224 264.992 184.975 131.675 315.119C-1.64209 445.263 -61.1491 600.517 -1.23773 661.889C58.6736 723.261 215.316 667.511 348.633 537.367Z" stroke="#7587FF" stroke-width="2.70924" stroke-miterlimit="10"/>
<path d="M350.727 530.137C479.461 390.922 531.864 230.021 467.773 170.754C403.681 111.488 247.365 176.299 118.63 315.514C-10.104 454.73 -62.5074 615.631 1.58428 674.897C65.6759 734.164 221.992 669.352 350.727 530.137Z" stroke="#7587FF" stroke-width="2.70924" stroke-miterlimit="10"/>
<path d="M352.859 523.063C477.013 374.787 522.332 208.258 454.082 151.111C385.832 93.9645 229.858 167.839 105.703 316.116C-18.4507 464.392 -63.77 630.92 4.48007 688.067C72.7302 745.214 228.705 671.339 352.859 523.063Z" stroke="#7587FF" stroke-width="2.70924" stroke-miterlimit="10"/>
<path d="M354.926 515.694C474.485 358.352 512.696 186.188 440.272 131.156C367.848 76.1236 212.215 159.062 92.6565 316.404C-26.9025 473.746 -65.1132 645.909 7.31055 700.942C79.7343 755.974 235.367 673.036 354.926 515.694Z" stroke="#7587FF" stroke-width="2.70924" stroke-miterlimit="10"/>
<path d="M357.051 508.327C472.014 341.927 503.117 164.134 426.521 111.215C349.925 58.296 194.635 150.29 79.672 316.69C-35.2912 483.09 -66.3938 660.884 10.2023 713.803C86.7984 766.722 242.088 674.727 357.051 508.327Z" stroke="#7587FF" stroke-width="2.70924" stroke-miterlimit="10"/>
<path d="M359.41 501.755C469.817 326.296 493.841 142.856 413.069 92.0307C332.298 41.2056 177.317 142.241 66.91 317.701C-43.4972 493.16 -67.5218 676.6 13.2497 727.426C94.0213 778.251 249.002 677.215 359.41 501.755Z" stroke="#7587FF" stroke-width="2.70924" stroke-miterlimit="10"/>
</g>
<defs>
<clipPath id="clip0_19_357">
<rect width="846.636" height="819.449" fill="white" transform="translate(-133)"/>
</clipPath>
</defs>
</svg>
