<svg width="209" height="189" viewBox="0 0 209 189" fill="none" xmlns="http://www.w3.org/2000/svg">
<path fill-rule="evenodd" clip-rule="evenodd" d="M144.561 207.519C138.284 198.351 126.51 193.419 112.97 190.496C94.2641 186.459 77.1308 175.17 66.1703 157.684C44.583 123.243 55.0643 77.7845 89.5812 56.1496C124.097 34.5152 169.579 44.8967 191.166 79.3377C202.125 96.8226 204.818 117.162 200.299 135.756C196.923 149.649 196.294 162.781 202.403 172.528L210.719 185.795C217.195 196.127 214.051 209.765 203.696 216.256L183.921 228.65C173.566 235.141 159.921 232.026 153.445 221.694L144.561 207.519ZM78.6702 149.849C61.4004 122.297 69.7854 85.9299 97.3988 68.622C125.012 51.3144 161.396 59.6198 178.666 87.1724C187.435 101.163 189.593 117.411 185.973 132.308C183.569 142.199 181.888 153.784 183.976 164.917L146.329 188.514C137.219 181.783 126.06 178.246 116.111 176.099C101.124 172.864 87.4396 163.84 78.6702 149.849ZM157.934 201.078C157.847 200.912 157.751 200.747 157.65 200.584C157.41 200.201 157.165 199.824 156.915 199.453L156.824 199.308L189.099 179.079L198.219 193.63C200.378 197.074 199.331 201.619 195.878 203.783L176.103 216.178C172.652 218.341 168.103 217.303 165.945 213.859L157.934 201.078Z" fill="#323544" fill-opacity="0.3"/>
<path d="M39.088 174.66C36.9292 171.216 37.9774 166.67 41.4291 164.507L49.7623 159.284C53.214 157.12 57.7623 158.158 59.921 161.602C62.0798 165.047 61.0316 169.593 57.5799 171.756L49.2467 176.979C45.795 179.143 41.2468 178.105 39.088 174.66Z" fill="#323544" fill-opacity="0.3"/>
<path d="M30.1842 114.811C26.1155 114.962 22.9337 118.38 23.0773 122.445C23.2211 126.509 26.6358 129.681 30.7045 129.529L40.5272 129.163C44.5959 129.012 47.7777 125.594 47.634 121.53C47.4903 117.465 44.0755 114.293 40.0068 114.445L30.1842 114.811Z" fill="#323544" fill-opacity="0.3"/>
<path d="M79.1034 211.83C75.5081 209.929 74.1416 205.473 76.0516 201.878L80.6625 193.197C82.5725 189.601 87.0353 188.227 90.6307 190.128C94.2259 192.029 95.5924 196.485 93.6825 200.08L89.0715 208.761C87.1616 212.357 82.6987 213.731 79.1034 211.83Z" fill="#323544" fill-opacity="0.3"/>
<path d="M199.76 65.2662C196.308 67.4296 195.26 71.9757 197.419 75.4198C199.578 78.8639 204.126 79.902 207.578 77.7386L215.911 72.5154C219.362 70.352 220.411 65.806 218.252 62.3618C216.093 58.9177 211.545 57.8796 208.093 60.043L199.76 65.2662Z" fill="#323544" fill-opacity="0.3"/>
<path d="M209.712 115.489C209.569 111.424 212.751 108.006 216.819 107.855L226.642 107.489C230.711 107.337 234.126 110.509 234.269 114.573C234.413 118.638 231.231 122.056 227.162 122.208L217.339 122.573C213.271 122.725 209.856 119.553 209.712 115.489Z" fill="#323544" fill-opacity="0.3"/>
<path d="M163.664 36.9377C161.754 40.5334 163.12 44.9893 166.716 46.8903C170.311 48.7913 174.774 47.4174 176.684 43.8218L181.295 35.141C183.205 31.5448 181.839 27.0889 178.243 25.1879C174.648 23.2869 170.185 24.6608 168.274 28.257L163.664 36.9377Z" fill="#323544" fill-opacity="0.3"/>
</svg>
