<svg width="222" height="202" viewBox="0 0 222 202" fill="none" xmlns="http://www.w3.org/2000/svg">
<path d="M208.166 56.1477C207.829 55.7829 207.468 55.4306 207.072 55.1261C206.687 54.7857 206.268 54.4933 205.837 54.2364C205.406 53.98 204.963 53.7593 204.51 53.5739C204.056 53.3893 203.555 53.2284 203.078 53.1148C202.589 52.9779 202.124 52.8883 201.612 52.8229C201.1 52.7574 200.613 52.7392 200.114 52.7568L161.207 53.7024C159.008 53.7872 156.877 54.5249 155.133 55.8407C153.625 56.9758 152.466 58.4989 151.737 60.2191C151.609 60.4943 151.494 60.7927 151.402 61.0791L129.901 142.789L88.1305 133.697L84.4835 132.883C83.1962 132.589 81.8652 132.616 80.6221 133.046C80.4445 133.108 80.2668 133.169 80.1014 133.255C79.9475 133.304 79.782 133.389 79.6403 133.462C79.4039 133.584 79.1912 133.693 78.9671 133.838C78.7543 133.948 78.5896 134.092 78.4249 134.237C78.0597 134.515 77.7188 134.839 77.4257 135.199L68.4088 145.848C67.5299 146.929 66.9508 148.243 66.7886 149.612C66.6384 151.005 66.8927 152.428 67.5252 153.658L102.3 221.24C102.932 222.468 103.943 223.504 105.163 224.191C106.371 224.854 107.778 225.148 109.167 225.06L123.111 223.985C124.405 223.887 125.659 223.42 126.733 222.66C127.793 221.874 128.601 220.831 129.11 219.612L130.519 216.076L147.404 176.804L226.388 206.809C226.639 206.89 226.913 206.957 227.187 207.025C227.222 207.037 227.258 207.049 227.283 207.037C229.105 207.443 231.018 207.386 232.819 206.818C234.903 206.164 236.743 204.859 238.09 203.12L261.476 172.011C261.781 171.616 262.05 171.209 262.294 170.754C262.771 169.881 263.141 168.913 263.38 167.983C263.48 167.483 263.558 166.995 263.6 166.494C263.767 164.495 263.363 162.491 262.438 160.694L209.882 58.5533C209.432 57.6788 208.864 56.8649 208.166 56.1477ZM115.002 199.456L92.6344 155.985L123.368 167.675L115.002 199.456ZM159.29 149.192L181.776 96.8728L214.92 161.287L159.29 149.192Z" fill="#323544" fill-opacity="0.3"/>
</svg>
