<svg width="55" height="55" viewBox="0 0 55 55" fill="none" xmlns="http://www.w3.org/2000/svg">
<g clip-path="url(#clip0_339_192)">
<path d="M46.4992 12.6474C46.4946 12.5654 46.4787 12.4862 46.4511 12.4086C46.4424 12.3841 46.4364 12.3598 46.4255 12.3363C46.3842 12.2465 46.3318 12.1611 46.2594 12.0884C46.2594 12.0884 43.3162 9.13259 40.3697 6.17935C38.8968 4.70226 37.4223 3.22688 36.3145 2.12078C35.4954 1.30343 34.9558 0.764601 34.5756 0.429789C34.5697 0.421367 34.5638 0.413804 34.558 0.405383C34.5571 0.40375 34.5563 0.40289 34.5554 0.401258L34.5487 0.406242C34.0147 -0.0591096 33.8036 -0.109727 33.5622 0.0361951L11.1543 0.0369686C9.68646 0.0369686 8.49219 1.2321 8.49219 2.70069V46.1554C8.49219 46.8998 8.78171 47.5997 9.31049 48.1292C9.83075 48.6471 10.5492 48.9442 11.2809 48.9442H22.5829C23.0579 48.9442 23.4423 48.5598 23.4423 48.0848C23.4423 47.6097 23.0579 47.2254 22.5829 47.2254H11.2809C10.9998 47.2254 10.7237 47.1104 10.5248 46.9132C10.3251 46.7135 10.2109 46.4374 10.2109 46.1554V2.70069C10.2109 2.17956 10.6339 1.75572 11.1543 1.75572L33.0362 1.75495C33.0686 3.7163 33.032 9.15227 32.9944 12.6851C32.9919 12.915 33.0817 13.1357 33.2429 13.2986C33.404 13.4622 33.6247 13.5536 33.8538 13.5536H44.7899V46.2956C44.7899 46.5406 44.6909 46.7798 44.5171 46.9535C44.3417 47.1289 44.1084 47.2254 43.86 47.2254H43.4689C42.9939 47.2254 42.6095 47.6097 42.6095 48.0848C42.6095 48.5598 42.9939 48.9442 43.4689 48.9442H43.86C44.5683 48.9442 45.2338 48.6681 45.7332 48.1679C46.2258 47.6752 46.5086 46.993 46.5086 46.2956V12.6943C46.5086 12.6777 46.5001 12.6639 46.4992 12.6474ZM34.7225 11.8349C34.7686 7.31149 34.7829 4.62337 34.7695 3.00705C36.7802 5.01284 40.467 8.70875 43.5814 11.8349H34.7225Z" fill="#8B8B8B"/>
<path d="M39.9013 42.4778C39.8694 42.3684 39.8159 42.2715 39.7496 42.187C40.992 40.6968 41.7409 38.7807 41.7409 36.6887C41.7409 31.9426 37.8933 28.095 33.1472 28.095C28.4009 28.095 24.5534 31.9426 24.5534 36.6887C24.5534 38.898 25.3942 40.9061 26.7642 42.4285L23.8635 52.3723C23.7687 52.6972 23.8736 53.048 24.1313 53.2678C24.3889 53.4868 24.7506 53.533 25.0569 53.3895L27.98 52.0005L29.8171 54.6643C29.979 54.8993 30.2451 55.0361 30.5245 55.0361C30.5732 55.0361 30.6219 55.0319 30.6705 55.0235C31.0012 54.9664 31.2681 54.723 31.3545 54.3991L33.3264 47.0416L35.2981 54.3991C35.3845 54.7222 35.6506 54.9656 35.9804 55.0235C36.0299 55.0319 36.0794 55.0361 36.1281 55.0361C36.4067 55.0361 36.6711 54.9009 36.8339 54.6668L38.676 52.0165L41.5974 53.3912C41.9028 53.5338 42.2638 53.486 42.5222 53.2661C42.779 53.0471 42.8831 52.6972 42.7882 52.3723L39.9013 42.4778ZM33.1472 29.7319C36.9832 29.7319 40.104 32.8527 40.104 36.6887C40.104 40.5248 36.9832 43.6456 33.1472 43.6456C29.3111 43.6456 26.1903 40.5248 26.1903 36.6887C26.1903 32.8527 29.3111 29.7319 33.1472 29.7319ZM30.1762 52.1575L28.9795 50.4228C28.7395 50.0754 28.2838 49.952 27.9036 50.1341L26.0498 51.0145L28.1846 43.6968C29.3021 44.4897 30.6154 45.0196 32.0399 45.2032L30.1762 52.1575ZM38.7507 50.1518C38.3705 49.9729 37.9182 50.0955 37.679 50.4396L36.4789 52.1659L34.5989 45.1506C36.016 44.909 37.3126 44.3229 38.4026 43.4779L40.6046 51.0246L38.7507 50.1518Z" fill="#8B8B8B"/>
<path d="M33.1475 40.9856C35.5205 40.9856 37.4443 39.0619 37.4443 36.6887C37.4443 34.3156 35.5205 32.3918 33.1475 32.3918C30.7744 32.3918 28.8506 34.3156 28.8506 36.6887C28.8506 39.0619 30.7744 40.9856 33.1475 40.9856ZM33.1475 34.1106C34.569 34.1106 35.7256 35.2671 35.7256 36.6887C35.7256 38.1104 34.569 39.2668 33.1475 39.2668C31.7258 39.2668 30.5693 38.1104 30.5693 36.6887C30.5693 35.2671 31.7258 34.1106 33.1475 34.1106Z" fill="#8B8B8B"/>
</g>
<defs>
<clipPath id="clip0_339_192">
<rect width="55" height="55" fill="white"/>
</clipPath>
</defs>
</svg>
