<svg width="55" height="55" viewBox="0 0 55 55" fill="none" xmlns="http://www.w3.org/2000/svg">
<path d="M54.1816 20.38L48.7753 17.3375L54.1816 14.295C54.2783 14.2407 54.3589 14.1615 54.415 14.0658C54.4711 13.97 54.5006 13.861 54.5006 13.75C54.5006 13.639 54.4711 13.53 54.415 13.4342C54.3589 13.3384 54.2783 13.2593 54.1816 13.205L34.1816 1.95499C34.088 1.90254 33.9826 1.875 33.8753 1.875C33.7681 1.875 33.6626 1.90254 33.5691 1.95499L27.5003 5.37062L21.4316 1.95499C21.338 1.90254 21.2326 1.875 21.1253 1.875C21.0181 1.875 20.9126 1.90254 20.8191 1.95499L0.819059 13.205C0.722275 13.2593 0.641705 13.3384 0.585631 13.4342C0.529556 13.53 0.5 13.639 0.5 13.75C0.5 13.861 0.529556 13.97 0.585631 14.0658C0.641705 14.1615 0.722275 14.2407 0.819059 14.295L6.22531 17.3375L0.819059 20.38C0.722275 20.4343 0.641705 20.5134 0.585631 20.6092C0.529556 20.705 0.5 20.814 0.5 20.925C0.5 21.036 0.529556 21.145 0.585631 21.2408C0.641705 21.3365 0.722275 21.4157 0.819059 21.47L6.87531 24.8762V41.25C6.87534 41.3609 6.90488 41.4699 6.96089 41.5656C7.0169 41.6614 7.09738 41.7406 7.19406 41.795L27.1941 53.045C27.2893 53.0931 27.3937 53.1204 27.5003 53.125C27.6068 53.1198 27.7111 53.0926 27.8066 53.045L47.8066 41.795C47.9032 41.7406 47.9837 41.6614 48.0397 41.5656C48.0957 41.4699 48.1253 41.3609 48.1253 41.25V24.8762L54.1816 21.47C54.2783 21.4157 54.3589 21.3365 54.415 21.2408C54.4711 21.145 54.5006 21.036 54.5006 20.925C54.5006 20.814 54.4711 20.705 54.415 20.6092C54.3589 20.5134 54.2783 20.4343 54.1816 20.38ZM26.8753 27.5187L8.77531 17.3375L26.8753 7.15624V27.5187ZM28.1253 7.15624L46.2253 17.3375L28.1253 27.5187V7.15624ZM33.8753 3.21686L52.6009 13.75L47.5003 16.6206L28.7753 6.08749L33.8753 3.21686ZM21.1253 3.21686L26.2253 6.08749L12.1816 13.9875L7.50031 16.6206L2.39968 13.75L21.1253 3.21686ZM7.50031 18.0544L26.2253 28.5875L21.1253 31.4581L2.39968 20.925L7.50031 18.0544ZM8.12531 25.5806L20.8191 32.72C20.9126 32.7726 21.018 32.8002 21.1253 32.8002C21.2326 32.8002 21.338 32.7726 21.4316 32.72L26.8753 29.6562V51.4312L8.12531 40.8844V25.5806ZM46.8753 25.5806V40.8844L28.1253 51.4312V29.6562L33.5691 32.7194C33.6626 32.7719 33.768 32.7995 33.8753 32.7995C33.9826 32.7995 34.088 32.7719 34.1816 32.7194L46.8753 25.5806ZM33.8753 31.4581L28.7753 28.5875L47.5003 18.055L52.6009 20.925L33.8753 31.4581Z" fill="#8B8B8B"/>
</svg>
