<svg width="346" height="344" viewBox="0 0 346 344" fill="none" xmlns="http://www.w3.org/2000/svg">
<path d="M60.9998 254.5C45.0998 252.3 36.5998 234.3 36.5998 234.3C36.5998 234.3 34.2998 240.7 34.2998 250.1C34.2998 250.1 38.1998 254 44.9998 257.4C50.2998 256.3 55.6998 255.4 60.9998 254.5Z" fill="#231553"/>
<path d="M162.2 171.6C146.2 171.6 135.2 174.2 135.2 174.2C135.2 174.2 139.1 181.6 139.1 196.6V233.3C139.1 243.8 136.3 246.3 136.3 246.3L136.5 246.4C141.4 246.1 146.4 245.9 151.4 245.8V198.1C151.4 188.3 150.2 181.8 149.1 180.1C149.1 180.1 153.9 179.1 161.8 179.1C182.5 179.1 198.2 188.8 198.2 212.6C198.2 230.3 186.1 241.7 172.7 245.4V245.5C177.7 245.5 182.7 245.6 187.7 245.7C200.6 240.8 210.3 229.2 210.3 213C210.4 186.6 187.7 171.6 162.2 171.6Z" fill="#231553"/>
<path d="M260.8 234.4V172.4C255.9 172.3 251 172.2 246.1 172.1C246.5 173.7 248.5 182.3 248.5 198.4V228.6C248.5 237.7 250.6 244.8 254.1 250.1C259.3 250.7 264.4 251.4 269.6 252.1C264.4 248.8 260.8 242.7 260.8 234.4Z" fill="#231553"/>
<path d="M299.1 173.4V234.4C299.1 245.3 293 252.5 284.7 254.5C289.4 255.3 294 256.1 298.7 257C306.4 251.6 311.4 242.1 311.4 228.7V173.8C307.2 173.6 303.2 173.5 299.1 173.4Z" fill="#231553"/>
<path d="M69.7998 211.6C55.4998 204.6 49.6998 200.8 49.6998 193.1C49.6998 186 56.6998 180.2 66.8998 180.2C82.9998 180.2 88.9998 192.2 88.9998 192.2C88.9998 183.7 87.0998 177.7 87.0998 177.7C87.0998 177.7 81.0998 172.9 66.8998 172.9C51.8998 172.9 38.7998 182.2 38.7998 195.1C38.7998 208 47.1998 215 61.5998 221.8C75.9998 228.6 83.4998 233.4 83.4998 240.9C83.4998 245.8 80.9998 249.7 75.7998 252.1C80.8998 251.4 85.9998 250.7 91.1998 250.1C93.7998 246.4 95.1998 242.2 95.1998 237.8C95.1998 225.3 84.0998 218.6 69.7998 211.6Z" fill="#231553"/>
<path d="M74.2002 274.4C94.9002 271.6 115.7 269.8 136.6 268.9L136.5 267.4C115.6 268.7 94.8002 270.9 74.2002 274.1V274.4Z" fill="#F6A667"/>
<path d="M271.4 274.4C250.7 271.6 229.9 269.8 209 268.9L209.1 267.4C230 268.7 250.8 270.9 271.4 274.1V274.4Z" fill="#F6A667"/>
<path d="M172.8 74.1L178.5 64.1L172.8 54.2L167.1 64.1L172.8 74.1Z" fill="#F6A567"/>
<path d="M198.1 99.2C192 103.8 185.7 108.6 179.6 114.7C179.5 114.8 179.4 114.8 179.4 114.9C178.9 114.4 178.2 113.7 177.5 113.1L177.6 113C189.3 102.5 194.1 98.2 196.3 96C206.2 86.1 214.5 74.7 214.5 64.2C214.5 58.3 211.7 51.9 209.5 49.7C209.5 49.7 209.9 51.6 209.9 54.3C209.9 64.2 209.9 74.3 194.3 92.5C192.1 95 187.2 100.4 176.1 111.6C176.1 111.6 176.1 111.6 176 111.7C175.3 111 174.7 110.4 174.2 109.9C180.8 103.5 187.2 96.6 192.4 89.2C202.8 74.3 205.2 64.3 205.2 54.3C205.2 42.3 198.2 34.4 195.7 34.4C197.7 40.1 198.6 47.3 198.6 54.3C198.6 64.2 196.3 74.6 190.1 85.1C185.2 93.5 179.6 101.6 172.8 108.5C166 101.6 160.4 93.5 155.5 85.1C149.3 74.6 147 64.2 147 54.3C147 47.3 147.9 40.1 149.9 34.4C147.4 34.4 140.4 42.3 140.4 54.3C140.4 64.2 142.8 74.3 153.2 89.2C158.4 96.6 164.8 103.5 171.4 109.9C170.9 110.4 170.2 111.1 169.6 111.7C169.6 111.7 169.6 111.7 169.5 111.6C158.4 100.3 153.5 95 151.3 92.5C135.7 74.3 135.7 64.2 135.7 54.3C135.7 51.6 136.1 49.7 136.1 49.7C133.9 51.9 131.1 58.4 131.1 64.2C131.1 74.7 139.5 86.1 149.3 96C151.5 98.2 156.2 102.5 168 113L168.1 113.1C167.4 113.8 166.8 114.4 166.2 114.9C166.1 114.8 166 114.7 166 114.7C159.9 108.6 153.6 103.8 147.5 99.2C140.4 93.8 135.7 88.4 131.1 79.7C131.1 88.4 135.7 96.5 145.7 102.4C150.9 105.5 156.6 109 164.5 116C164.6 116.1 164.7 116.2 164.9 116.3C160.9 120.2 156.6 123.6 152 126.8C152.5 127.8 153.1 128.7 153.7 129.6C158.1 125.9 162.3 121.8 166.4 117.7C167 118.2 167.6 118.9 168.2 119.5C162.6 125 158.5 128.9 155.5 131.8C156.2 132.6 157 133.4 157.9 134.1C160.6 131.2 164.3 127 169.7 121C170.4 121.7 171 122.3 171.5 122.8C167.2 127.1 163.6 131.5 160.2 135.8C161 136.3 161.9 136.8 162.8 137.2C165.2 133.5 168.3 129.3 172.8 124.2C177.3 129.3 180.4 133.5 182.8 137.2C183.7 136.8 184.5 136.3 185.4 135.8C182 131.5 178.4 127.1 174.1 122.8C174.6 122.3 175.3 121.6 175.9 121C181.3 127 185 131.2 187.7 134.1C188.5 133.4 189.3 132.6 190.1 131.8C187.1 128.9 183 125 177.4 119.5C178 118.9 178.7 118.2 179.2 117.7C183.2 121.8 187.4 125.9 191.9 129.6C192.5 128.7 193.1 127.8 193.6 126.8C189 123.6 184.7 120.1 180.7 116.3C180.9 116.1 181 116 181.1 116C189 109 194.7 105.5 199.9 102.4C209.9 96.5 214.5 88.4 214.5 79.7C209.9 88.3 205.2 93.8 198.1 99.2ZM177.9 116.3C177.3 116.9 176.7 117.5 176.1 118.1C175.6 117.6 174.9 116.9 174.2 116.2C174.9 115.5 175.5 114.9 176.1 114.4C176.7 115.1 177.4 115.8 177.9 116.3ZM172.8 121.4C172.3 120.9 171.6 120.2 170.9 119.5C171.4 118.9 172.1 118.3 172.8 117.6C173.5 118.3 174.1 119 174.7 119.5C174 120.2 173.4 120.9 172.8 121.4ZM172.8 111.2C173.4 111.8 174 112.4 174.7 113C174.1 113.6 173.5 114.2 172.8 114.9C172.1 114.2 171.5 113.6 171 113C171.6 112.4 172.3 111.8 172.8 111.2ZM169.6 114.4C170.2 114.9 170.8 115.6 171.5 116.2C170.8 116.9 170.1 117.6 169.6 118.1C168.9 117.4 168.3 116.8 167.8 116.3C168.2 115.8 168.9 115.1 169.6 114.4Z" fill="#231553"/>
<path d="M62.809 287.569V285.772H75.3545V287.569H70.0945V302.5H68.069V287.569H62.809ZM84.9494 302.5V285.772H95.0446V287.569H86.975V293.221H94.5218V295.018H86.975V300.703H95.1752V302.5H84.9494ZM118.624 291H116.599C116.479 290.417 116.269 289.905 115.97 289.464C115.676 289.023 115.317 288.653 114.892 288.353C114.473 288.049 114.007 287.82 113.495 287.667C112.983 287.515 112.45 287.439 111.894 287.439C110.882 287.439 109.964 287.695 109.142 288.206C108.325 288.718 107.674 289.472 107.19 290.469C106.711 291.465 106.471 292.688 106.471 294.136C106.471 295.585 106.711 296.807 107.19 297.803C107.674 298.8 108.325 299.554 109.142 300.066C109.964 300.578 110.882 300.834 111.894 300.834C112.45 300.834 112.983 300.757 113.495 300.605C114.007 300.452 114.473 300.226 114.892 299.927C115.317 299.622 115.676 299.249 115.97 298.808C116.269 298.361 116.479 297.85 116.599 297.272H118.624C118.472 298.127 118.194 298.892 117.791 299.568C117.388 300.243 116.887 300.817 116.289 301.291C115.69 301.759 115.017 302.116 114.271 302.361C113.531 302.606 112.738 302.728 111.894 302.728C110.468 302.728 109.199 302.38 108.088 301.683C106.977 300.986 106.104 299.995 105.466 298.71C104.829 297.425 104.511 295.9 104.511 294.136C104.511 292.372 104.829 290.847 105.466 289.562C106.104 288.277 106.977 287.286 108.088 286.589C109.199 285.892 110.468 285.544 111.894 285.544C112.738 285.544 113.531 285.666 114.271 285.911C115.017 286.156 115.69 286.516 116.289 286.989C116.887 287.458 117.388 288.029 117.791 288.705C118.194 289.374 118.472 290.139 118.624 291ZM128.366 302.5V285.772H130.392V293.221H139.311V285.772H141.337V302.5H139.311V295.018H130.392V302.5H128.366ZM165.125 285.772V302.5H163.165L154.049 289.366H153.886V302.5H151.861V285.772H153.821L162.968 298.939H163.132V285.772H165.125ZM189.76 294.136C189.76 295.9 189.442 297.425 188.805 298.71C188.168 299.995 187.294 300.986 186.183 301.683C185.072 302.38 183.803 302.728 182.377 302.728C180.95 302.728 179.681 302.38 178.571 301.683C177.46 300.986 176.586 299.995 175.949 298.71C175.312 297.425 174.993 295.9 174.993 294.136C174.993 292.372 175.312 290.847 175.949 289.562C176.586 288.277 177.46 287.286 178.571 286.589C179.681 285.892 180.95 285.544 182.377 285.544C183.803 285.544 185.072 285.892 186.183 286.589C187.294 287.286 188.168 288.277 188.805 289.562C189.442 290.847 189.76 292.372 189.76 294.136ZM187.8 294.136C187.8 292.688 187.558 291.465 187.073 290.469C186.594 289.472 185.943 288.718 185.121 288.206C184.304 287.695 183.39 287.439 182.377 287.439C181.364 287.439 180.446 287.695 179.624 288.206C178.808 288.718 178.157 289.472 177.672 290.469C177.193 291.465 176.953 292.688 176.953 294.136C176.953 295.585 177.193 296.807 177.672 297.803C178.157 298.8 178.808 299.554 179.624 300.066C180.446 300.578 181.364 300.834 182.377 300.834C183.39 300.834 184.304 300.578 185.121 300.066C185.943 299.554 186.594 298.8 187.073 297.803C187.558 296.807 187.8 295.585 187.8 294.136ZM199.635 302.5V285.772H205.287C206.599 285.772 207.672 286.009 208.505 286.483C209.344 286.951 209.964 287.586 210.367 288.386C210.77 289.187 210.972 290.08 210.972 291.065C210.972 292.051 210.77 292.946 210.367 293.752C209.97 294.558 209.354 295.201 208.521 295.68C207.688 296.154 206.621 296.39 205.32 296.39H201.268V294.594H205.254C206.153 294.594 206.874 294.438 207.419 294.128C207.963 293.818 208.358 293.398 208.603 292.87C208.853 292.337 208.979 291.735 208.979 291.065C208.979 290.395 208.853 289.796 208.603 289.268C208.358 288.74 207.96 288.326 207.411 288.027C206.861 287.722 206.131 287.569 205.222 287.569H201.661V302.5H199.635ZM221.389 302.5H219.266L225.408 285.772H227.499L233.641 302.5H231.517L226.519 288.419H226.388L221.389 302.5ZM222.173 295.966H230.733V297.763H222.173V295.966ZM242.715 302.5V285.772H248.367C249.674 285.772 250.747 285.996 251.585 286.442C252.424 286.883 253.044 287.49 253.447 288.264C253.85 289.037 254.052 289.916 254.052 290.902C254.052 291.887 253.85 292.761 253.447 293.524C253.044 294.286 252.426 294.885 251.593 295.32C250.76 295.751 249.696 295.966 248.4 295.966H243.826V294.136H248.334C249.227 294.136 249.946 294.005 250.491 293.744C251.041 293.483 251.438 293.112 251.683 292.633C251.934 292.149 252.059 291.571 252.059 290.902C252.059 290.232 251.934 289.647 251.683 289.146C251.433 288.645 251.032 288.258 250.482 287.986C249.932 287.708 249.206 287.569 248.302 287.569H244.741V302.5H242.715ZM250.589 294.986L254.705 302.5H252.353L248.302 294.986H250.589ZM263.896 302.5V285.772H265.921V294.071H266.117L273.631 285.772H276.278L269.254 293.319L276.278 302.5H273.828L268.012 294.724L265.921 297.076V302.5H263.896Z" fill="#231553"/>
<path d="M147.808 273.119V271.84L152.61 266.585C153.173 265.969 153.637 265.434 154.002 264.979C154.366 264.52 154.636 264.089 154.811 263.687C154.991 263.28 155.081 262.854 155.081 262.408C155.081 261.897 154.958 261.454 154.712 261.08C154.47 260.706 154.139 260.417 153.718 260.214C153.296 260.01 152.823 259.908 152.297 259.908C151.738 259.908 151.251 260.024 150.834 260.256C150.422 260.484 150.102 260.803 149.875 261.215C149.653 261.627 149.541 262.11 149.541 262.664H147.865C147.865 261.812 148.062 261.064 148.455 260.42C148.848 259.776 149.383 259.274 150.06 258.914C150.742 258.554 151.506 258.374 152.354 258.374C153.206 258.374 153.961 258.554 154.619 258.914C155.278 259.274 155.794 259.759 156.168 260.37C156.542 260.981 156.729 261.66 156.729 262.408C156.729 262.943 156.632 263.467 156.438 263.978C156.248 264.485 155.917 265.05 155.443 265.675C154.975 266.296 154.324 267.053 153.49 267.948L150.223 271.443V271.556H156.985V273.119H147.808ZM164.662 273.318C163.592 273.318 162.681 273.026 161.928 272.444C161.175 271.857 160.6 271.007 160.202 269.894C159.804 268.777 159.605 267.427 159.605 265.846C159.605 264.274 159.804 262.932 160.202 261.819C160.604 260.702 161.182 259.849 161.935 259.262C162.692 258.67 163.602 258.374 164.662 258.374C165.723 258.374 166.629 258.67 167.382 259.262C168.14 259.849 168.718 260.702 169.115 261.819C169.518 262.932 169.719 264.274 169.719 265.846C169.719 267.427 169.52 268.777 169.122 269.894C168.725 271.007 168.149 271.857 167.396 272.444C166.644 273.026 165.732 273.318 164.662 273.318ZM164.662 271.755C165.723 271.755 166.547 271.244 167.134 270.221C167.721 269.198 168.014 267.74 168.014 265.846C168.014 264.586 167.879 263.514 167.61 262.629C167.344 261.743 166.961 261.068 166.459 260.604C165.962 260.14 165.363 259.908 164.662 259.908C163.611 259.908 162.789 260.427 162.198 261.464C161.606 262.496 161.31 263.957 161.31 265.846C161.31 267.105 161.442 268.175 161.708 269.056C161.973 269.937 162.354 270.607 162.851 271.066C163.353 271.525 163.957 271.755 164.662 271.755ZM177.531 258.573V273.119H175.77V260.42H175.685L172.134 262.778V260.988L175.77 258.573H177.531ZM181.374 270.136V268.687L187.766 258.573H188.817V260.818H188.107L183.277 268.46V268.573H191.885V270.136H181.374ZM188.22 273.119V269.695V269.021V258.573H189.896V273.119H188.22Z" fill="#F6A667"/>
</svg>
