<svg width="40" height="40" viewBox="0 0 40 40" fill="none" xmlns="http://www.w3.org/2000/svg">
<path d="M7.052 29.593C5.21385 29.3372 4.23119 27.2441 4.23119 27.2441C4.23119 27.2441 3.96529 27.9883 3.96529 29.0814C3.96529 29.0814 4.41616 29.5348 5.20229 29.9302C5.81501 29.8023 6.43928 29.6976 7.052 29.593Z" fill="white"/>
<path d="M18.7514 19.9534C16.9017 19.9534 15.6301 20.2557 15.6301 20.2557C15.6301 20.2557 16.0809 21.1162 16.0809 22.8603V27.1278C16.0809 28.3487 15.7572 28.6394 15.7572 28.6394L15.7803 28.651C16.3468 28.6162 16.9248 28.5929 17.5029 28.5813V23.0348C17.5029 21.8952 17.3642 21.1394 17.237 20.9417C17.237 20.9417 17.7919 20.8255 18.7052 20.8255C21.0983 20.8255 22.9133 21.9534 22.9133 24.7208C22.9133 26.779 21.5144 28.1045 19.9653 28.5348V28.5464C20.5433 28.5464 21.1214 28.558 21.6994 28.5696C23.1907 27.9999 24.3121 26.651 24.3121 24.7673C24.3237 21.6976 21.6994 19.9534 18.7514 19.9534Z" fill="white"/>
<path d="M30.1503 27.2559V20.0466C29.5838 20.035 29.0173 20.0233 28.4509 20.0117C28.4971 20.1978 28.7283 21.1978 28.7283 23.0699V26.5815C28.7283 27.6396 28.9711 28.4652 29.3757 29.0815C29.9769 29.1513 30.5665 29.2326 31.1676 29.314C30.5665 28.9303 30.1503 28.221 30.1503 27.2559Z" fill="white"/>
<path d="M34.578 20.1628V27.2559C34.578 28.5233 33.8728 29.3605 32.9133 29.5931C33.4567 29.6861 33.9884 29.7791 34.5318 29.8838C35.422 29.2559 36 28.1512 36 26.5931V20.2094C35.5145 20.1861 35.052 20.1745 34.578 20.1628Z" fill="white"/>
<path d="M8.06934 24.6047C6.41616 23.7908 5.74564 23.3489 5.74564 22.4536C5.74564 21.628 6.55489 20.9536 7.73408 20.9536C9.59535 20.9536 10.289 22.3489 10.289 22.3489C10.289 21.3606 10.0693 20.6629 10.0693 20.6629C10.0693 20.6629 9.3757 20.1047 7.73408 20.1047C5.99998 20.1047 4.48553 21.1861 4.48553 22.6861C4.48553 24.1861 5.45663 25.0001 7.12137 25.7908C8.7861 26.5815 9.65316 27.1396 9.65316 28.0117C9.65316 28.5815 9.36414 29.035 8.76298 29.314C9.35258 29.2326 9.94217 29.1512 10.5433 29.0815C10.8439 28.6512 11.0058 28.1629 11.0058 27.6512C11.0058 26.1978 9.72252 25.4187 8.06934 24.6047Z" fill="white"/>
<path d="M8.57806 31.907C10.9711 31.5814 13.3757 31.3721 15.7919 31.2674L15.7804 31.093C13.3642 31.2442 10.9596 31.5 8.57806 31.8721V31.907Z" fill="#F6A667"/>
<path d="M31.3757 31.907C28.9827 31.5814 26.578 31.3721 24.1618 31.2674L24.1734 31.093C26.5896 31.2442 28.9942 31.5 31.3757 31.8721V31.907Z" fill="#F6A667"/>
<path d="M19.9769 8.6162L20.6358 7.45341L19.9769 6.30225L19.3179 7.45341L19.9769 8.6162Z" fill="#F6A567"/>
<path d="M22.9017 11.5349C22.1965 12.0698 21.4682 12.6279 20.763 13.3372C20.7514 13.3488 20.7399 13.3488 20.7399 13.3605C20.6821 13.3023 20.6012 13.2209 20.5202 13.1512L20.5318 13.1395C21.8844 11.9186 22.4393 11.4186 22.6936 11.1628C23.8381 10.0116 24.7977 8.68605 24.7977 7.46512C24.7977 6.77907 24.474 6.03488 24.2196 5.77907C24.2196 5.77907 24.2659 6 24.2659 6.31395C24.2659 7.46512 24.2659 8.63953 22.4624 10.7558C22.2081 11.0465 21.6416 11.6744 20.3584 12.9767C20.3584 12.9767 20.3584 12.9767 20.3468 12.9884C20.2659 12.907 20.1965 12.8372 20.1387 12.7791C20.9017 12.0349 21.6416 11.2326 22.2428 10.3721C23.4451 8.63953 23.7225 7.47674 23.7225 6.31395C23.7225 4.9186 22.9133 4 22.6243 4C22.8555 4.66279 22.9595 5.5 22.9595 6.31395C22.9595 7.46512 22.6936 8.67442 21.9769 9.89535C21.4104 10.8721 20.763 11.814 19.9769 12.6163C19.1907 11.814 18.5433 10.8721 17.9769 9.89535C17.2601 8.67442 16.9942 7.46512 16.9942 6.31395C16.9942 5.5 17.0983 4.66279 17.3295 4C17.0405 4 16.2312 4.9186 16.2312 6.31395C16.2312 7.46512 16.5087 8.63953 17.711 10.3721C18.3121 11.2326 19.052 12.0349 19.815 12.7791C19.7572 12.8372 19.6763 12.9186 19.6069 12.9884C19.6069 12.9884 19.6069 12.9884 19.5954 12.9767C18.3121 11.6628 17.7457 11.0465 17.4913 10.7558C15.6879 8.63953 15.6879 7.46512 15.6879 6.31395C15.6879 6 15.7341 5.77907 15.7341 5.77907C15.4798 6.03488 15.1561 6.7907 15.1561 7.46512C15.1561 8.68605 16.1272 10.0116 17.2601 11.1628C17.5144 11.4186 18.0578 11.9186 19.422 13.1395L19.4335 13.1512C19.3526 13.2326 19.2832 13.3023 19.2139 13.3605C19.2023 13.3488 19.1907 13.3372 19.1907 13.3372C18.4855 12.6279 17.7572 12.0698 17.052 11.5349C16.2312 10.907 15.6879 10.2791 15.1561 9.26744C15.1561 10.2791 15.6879 11.2209 16.8439 11.907C17.4451 12.2674 18.104 12.6744 19.0173 13.4884C19.0289 13.5 19.0405 13.5116 19.0636 13.5233C18.6012 13.9767 18.104 14.3721 17.5723 14.7442C17.6301 14.8605 17.6994 14.9651 17.7688 15.0698C18.2775 14.6395 18.763 14.1628 19.237 13.686C19.3064 13.7442 19.3757 13.8256 19.4451 13.8953C18.7977 14.5349 18.3237 14.9884 17.9769 15.3256C18.0578 15.4186 18.1503 15.5116 18.2543 15.593C18.5665 15.2558 18.9942 14.7674 19.6185 14.0698C19.6994 14.1512 19.7688 14.2209 19.8266 14.2791C19.3295 14.7791 18.9133 15.2907 18.5202 15.7907C18.6127 15.8488 18.7168 15.907 18.8208 15.9535C19.0983 15.5233 19.4566 15.0349 19.9769 14.4419C20.4971 15.0349 20.8555 15.5233 21.1329 15.9535C21.237 15.907 21.3295 15.8488 21.4335 15.7907C21.0405 15.2907 20.6243 14.7791 20.1272 14.2791C20.185 14.2209 20.2659 14.1395 20.3353 14.0698C20.9595 14.7674 21.3873 15.2558 21.6994 15.593C21.7919 15.5116 21.8844 15.4186 21.9769 15.3256C21.6301 14.9884 21.1561 14.5349 20.5087 13.8953C20.578 13.8256 20.659 13.7442 20.7168 13.686C21.1792 14.1628 21.6647 14.6395 22.185 15.0698C22.2543 14.9651 22.3237 14.8605 22.3815 14.7442C21.8497 14.3721 21.3526 13.9651 20.8902 13.5233C20.9133 13.5 20.9249 13.4884 20.9364 13.4884C21.8497 12.6744 22.5087 12.2674 23.1098 11.907C24.2659 11.2209 24.7977 10.2791 24.7977 9.26744C24.2659 10.2674 23.7225 10.907 22.9017 11.5349ZM20.5665 13.5233C20.4971 13.593 20.4277 13.6628 20.3584 13.7326C20.3006 13.6744 20.2196 13.593 20.1387 13.5116C20.2196 13.4302 20.289 13.3605 20.3584 13.3023C20.4277 13.3837 20.5087 13.4651 20.5665 13.5233ZM19.9769 14.1163C19.9191 14.0581 19.8381 13.9767 19.7572 13.8953C19.815 13.8256 19.896 13.7558 19.9769 13.6744C20.0578 13.7558 20.1272 13.8372 20.1965 13.8953C20.1156 13.9767 20.0462 14.0581 19.9769 14.1163ZM19.9769 12.9302C20.0462 13 20.1156 13.0698 20.1965 13.1395C20.1272 13.2093 20.0578 13.2791 19.9769 13.3605C19.896 13.2791 19.8266 13.2093 19.7688 13.1395C19.8381 13.0698 19.9191 13 19.9769 12.9302ZM19.6069 13.3023C19.6763 13.3605 19.7457 13.4419 19.8266 13.5116C19.7457 13.593 19.6647 13.6744 19.6069 13.7326C19.526 13.6512 19.4566 13.5814 19.3988 13.5233C19.4451 13.4651 19.526 13.3837 19.6069 13.3023Z" fill="white"/>
<path d="M7.26115 33.4383V33.2294H8.7115V33.4383H8.10341V35.1745H7.86925V33.4383H7.26115ZM9.82074 35.1745V33.2294H10.9878V33.4383H10.0549V34.0956H10.9274V34.3045H10.0549V34.9656H11.0029V35.1745H9.82074ZM13.7138 33.8373H13.4797C13.4658 33.7695 13.4415 33.71 13.4069 33.6587C13.3729 33.6074 13.3314 33.5644 13.2823 33.5295C13.2339 33.4942 13.18 33.4675 13.1208 33.4497C13.0616 33.4321 13 33.4232 12.9357 33.4232C12.8187 33.4232 12.7126 33.453 12.6176 33.5124C12.5231 33.5719 12.4479 33.6596 12.3919 33.7756C12.3365 33.8914 12.3088 34.0336 12.3088 34.2019C12.3088 34.3704 12.3365 34.5125 12.3919 34.6283C12.4479 34.7443 12.5231 34.832 12.6176 34.8915C12.7126 34.951 12.8187 34.9808 12.9357 34.9808C13 34.9808 13.0616 34.9718 13.1208 34.9542C13.18 34.9364 13.2339 34.9101 13.2823 34.8753C13.3314 34.8399 13.3729 34.7965 13.4069 34.7452C13.4415 34.6932 13.4658 34.6338 13.4797 34.5666H13.7138C13.6962 34.666 13.664 34.755 13.6175 34.8336C13.5709 34.9121 13.5129 34.9788 13.4438 35.0339C13.3746 35.0883 13.2968 35.1299 13.2105 35.1583C13.125 35.1868 13.0333 35.201 12.9357 35.201C12.7709 35.201 12.6242 35.1606 12.4957 35.0795C12.3673 34.9985 12.2664 34.8832 12.1926 34.7338C12.119 34.5844 12.0822 34.4071 12.0822 34.2019C12.0822 33.9968 12.119 33.8195 12.1926 33.6701C12.2664 33.5207 12.3673 33.4054 12.4957 33.3244C12.6242 33.2433 12.7709 33.2029 12.9357 33.2029C13.0333 33.2029 13.125 33.2171 13.2105 33.2456C13.2968 33.274 13.3746 33.3159 13.4438 33.3709C13.5129 33.4254 13.5709 33.4918 13.6175 33.5704C13.664 33.6482 13.6962 33.7372 13.7138 33.8373ZM14.84 35.1745V33.2294H15.0742V34.0956H16.1053V33.2294H16.3395V35.1745H16.1053V34.3045H15.0742V35.1745H14.84ZM19.0896 33.2294V35.1745H18.863L17.8091 33.6473H17.7903V35.1745H17.5562V33.2294H17.7828L18.8402 34.7604H18.8592V33.2294H19.0896ZM21.9376 34.2019C21.9376 34.4071 21.9008 34.5844 21.8272 34.7338C21.7535 34.8832 21.6525 34.9985 21.524 35.0795C21.3956 35.1606 21.2489 35.201 21.084 35.201C20.9191 35.201 20.7724 35.1606 20.644 35.0795C20.5156 34.9985 20.4146 34.8832 20.3409 34.7338C20.2673 34.5844 20.2304 34.4071 20.2304 34.2019C20.2304 33.9968 20.2673 33.8195 20.3409 33.6701C20.4146 33.5207 20.5156 33.4054 20.644 33.3244C20.7724 33.2433 20.9191 33.2029 21.084 33.2029C21.2489 33.2029 21.3956 33.2433 21.524 33.3244C21.6525 33.4054 21.7535 33.5207 21.8272 33.6701C21.9008 33.8195 21.9376 33.9968 21.9376 34.2019ZM21.711 34.2019C21.711 34.0336 21.683 33.8914 21.6269 33.7756C21.5716 33.6596 21.4963 33.5719 21.4013 33.5124C21.3068 33.453 21.2012 33.4232 21.084 33.4232C20.9669 33.4232 20.8608 33.453 20.7658 33.5124C20.6714 33.5719 20.5962 33.6596 20.5401 33.7756C20.4847 33.8914 20.457 34.0336 20.457 34.2019C20.457 34.3704 20.4847 34.5125 20.5401 34.6283C20.5962 34.7443 20.6714 34.832 20.7658 34.8915C20.8608 34.951 20.9669 34.9808 21.084 34.9808C21.2012 34.9808 21.3068 34.951 21.4013 34.8915C21.4963 34.832 21.5716 34.7443 21.6269 34.6283C21.683 34.5125 21.711 34.3704 21.711 34.2019ZM23.0792 35.1745V33.2294H23.7326C23.8843 33.2294 24.0083 33.257 24.1046 33.3121C24.2016 33.3665 24.2733 33.4403 24.3199 33.5333C24.3665 33.6265 24.3898 33.7303 24.3898 33.8449C24.3898 33.9595 24.3665 34.0636 24.3199 34.1573C24.274 34.251 24.2028 34.3258 24.1065 34.3815C24.0102 34.4366 23.8868 34.464 23.7364 34.464H23.268V34.2552H23.7288C23.8327 34.2552 23.9161 34.2371 23.9791 34.201C24.042 34.165 24.0876 34.1161 24.116 34.0547C24.1449 33.9928 24.1594 33.9228 24.1594 33.8449C24.1594 33.767 24.1449 33.6973 24.116 33.6359C24.0876 33.5745 24.0416 33.5264 23.9781 33.4916C23.9146 33.4561 23.8302 33.4383 23.7251 33.4383H23.3134V35.1745H23.0792ZM25.5941 35.1745H25.3487L26.0587 33.2294H26.3005L27.0105 35.1745H26.765L26.1872 33.5372H26.172L25.5941 35.1745ZM25.6847 34.4147H26.6743V34.6237H25.6847V34.4147ZM28.0595 35.1745V33.2294H28.7129C28.864 33.2294 28.9881 33.2554 29.085 33.3073C29.182 33.3586 29.2536 33.4292 29.3002 33.5192C29.3468 33.609 29.3702 33.7113 29.3702 33.8259C29.3702 33.9404 29.3468 34.0421 29.3002 34.1308C29.2536 34.2194 29.1822 34.289 29.0859 34.3396C28.9896 34.3897 28.8666 34.4147 28.7168 34.4147H28.188V34.2019H28.7091C28.8124 34.2019 28.8955 34.1867 28.9585 34.1564C29.0221 34.126 29.068 34.0829 29.0963 34.0272C29.1253 33.9709 29.1398 33.9037 29.1398 33.8259C29.1398 33.748 29.1253 33.68 29.0963 33.6217C29.0674 33.5635 29.021 33.5185 28.9575 33.4868C28.8939 33.4545 28.8099 33.4383 28.7054 33.4383H28.2938V35.1745H28.0595ZM28.9698 34.3008L29.4457 35.1745H29.1738L28.7054 34.3008H28.9698ZM30.5082 35.1745V33.2294H30.7423V34.1944H30.765L31.6336 33.2294H31.9397L31.1276 34.1069L31.9397 35.1745H31.6564L30.984 34.2703L30.7423 34.5438V35.1745H30.5082Z" fill="white"/>
<path d="M17.0876 31.758V31.6093L17.6428 30.9982C17.7079 30.9266 17.7615 30.8644 17.8037 30.8115C17.8458 30.7581 17.877 30.708 17.8972 30.6612C17.918 30.6139 17.9284 30.5644 17.9284 30.5125C17.9284 30.4531 17.9142 30.4016 17.8858 30.3581C17.8578 30.3146 17.8195 30.281 17.7709 30.2574C17.7221 30.2337 17.6674 30.2218 17.6066 30.2218C17.542 30.2218 17.4857 30.2353 17.4375 30.2623C17.3898 30.2888 17.3528 30.3259 17.3266 30.3738C17.3009 30.4217 17.288 30.4779 17.288 30.5423H17.0942C17.0942 30.4432 17.117 30.3563 17.1624 30.2814C17.2079 30.2065 17.2697 30.1481 17.348 30.1062C17.4268 30.0644 17.5151 30.0435 17.6132 30.0435C17.7117 30.0435 17.799 30.0644 17.875 30.1062C17.9512 30.1481 18.0109 30.2045 18.0541 30.2756C18.0973 30.3466 18.119 30.4255 18.119 30.5125C18.119 30.5747 18.1077 30.6357 18.0853 30.6951C18.0634 30.754 18.0251 30.8197 17.9703 30.8924C17.9162 30.9646 17.8409 31.0526 17.7445 31.1567L17.3668 31.5631V31.5762H18.1486V31.758H17.0876ZM19.0361 31.7811C18.9124 31.7811 18.8071 31.7472 18.72 31.6795C18.6329 31.6112 18.5665 31.5124 18.5205 31.383C18.4745 31.2531 18.4514 31.0961 18.4514 30.9123C18.4514 30.7295 18.4745 30.5735 18.5205 30.444C18.5669 30.3142 18.6338 30.215 18.7208 30.1467C18.8083 30.0779 18.9135 30.0435 19.0361 30.0435C19.1587 30.0435 19.2635 30.0779 19.3505 30.1467C19.4382 30.215 19.505 30.3142 19.5509 30.444C19.5975 30.5735 19.6207 30.7295 19.6207 30.9123C19.6207 31.0961 19.5977 31.2531 19.5517 31.383C19.5058 31.5124 19.4392 31.6112 19.3521 31.6795C19.2652 31.7472 19.1598 31.7811 19.0361 31.7811ZM19.0361 31.5994C19.1587 31.5994 19.254 31.54 19.3219 31.421C19.3897 31.3021 19.4236 31.1325 19.4236 30.9123C19.4236 30.7658 19.408 30.6411 19.3769 30.5382C19.3461 30.4352 19.3019 30.3567 19.2438 30.3028C19.1864 30.2488 19.1171 30.2218 19.0361 30.2218C18.9146 30.2218 18.8195 30.2822 18.7512 30.4028C18.6828 30.5228 18.6486 30.6926 18.6486 30.9123C18.6486 31.0587 18.6638 31.1831 18.6946 31.2856C18.7252 31.388 18.7692 31.4659 18.8267 31.5193C18.8847 31.5726 18.9546 31.5994 19.0361 31.5994ZM20.5238 30.0666V31.758H20.3202V30.2814H20.3104L19.8999 30.5556V30.3474L20.3202 30.0666H20.5238ZM20.9681 31.4111V31.2426L21.7071 30.0666H21.8286V30.3276H21.7465L21.1881 31.2162V31.2294H22.1832V31.4111H20.9681ZM21.7595 31.758V31.3599V31.2815V30.0666H21.9533V31.758H21.7595Z" fill="#F6A667"/>
</svg>
