<svg width="37" height="37" viewBox="0 0 37 37" fill="none" xmlns="http://www.w3.org/2000/svg">
<rect width="37" height="37" rx="5" fill="#D8E7FF"/>
<g clip-path="url(#clip0_132_259)">
<path d="M18.5 8.25098C21.8398 8.25098 22.2354 8.26562 23.5488 8.32422C24.7695 8.37793 25.4287 8.58301 25.8682 8.75391C26.4492 8.97852 26.8691 9.25195 27.3037 9.68652C27.7432 10.126 28.0117 10.541 28.2363 11.1221C28.4072 11.5615 28.6123 12.2256 28.666 13.4414C28.7246 14.7598 28.7393 15.1553 28.7393 18.4902C28.7393 21.8301 28.7246 22.2256 28.666 23.5391C28.6123 24.7598 28.4072 25.4189 28.2363 25.8584C28.0117 26.4395 27.7383 26.8594 27.3037 27.2939C26.8643 27.7334 26.4492 28.002 25.8682 28.2266C25.4287 28.3975 24.7646 28.6025 23.5488 28.6563C22.2305 28.7148 21.835 28.7295 18.5 28.7295C15.1602 28.7295 14.7646 28.7148 13.4512 28.6563C12.2305 28.6025 11.5713 28.3975 11.1318 28.2266C10.5508 28.002 10.1309 27.7285 9.69629 27.2939C9.25684 26.8545 8.98828 26.4395 8.76367 25.8584C8.59277 25.4189 8.3877 24.7549 8.33398 23.5391C8.27539 22.2207 8.26074 21.8252 8.26074 18.4902C8.26074 15.1504 8.27539 14.7549 8.33398 13.4414C8.3877 12.2207 8.59277 11.5615 8.76367 11.1221C8.98828 10.541 9.26172 10.1211 9.69629 9.68652C10.1357 9.24707 10.5508 8.97852 11.1318 8.75391C11.5713 8.58301 12.2354 8.37793 13.4512 8.32422C14.7646 8.26562 15.1602 8.25098 18.5 8.25098ZM18.5 6C15.1064 6 14.6816 6.01465 13.3486 6.07324C12.0205 6.13184 11.1074 6.34668 10.3164 6.6543C9.49121 6.97656 8.79297 7.40137 8.09961 8.09961C7.40137 8.79297 6.97656 9.49121 6.6543 10.3115C6.34668 11.1074 6.13184 12.0156 6.07324 13.3438C6.01465 14.6816 6 15.1064 6 18.5C6 21.8936 6.01465 22.3184 6.07324 23.6514C6.13184 24.9795 6.34668 25.8926 6.6543 26.6836C6.97656 27.5088 7.40137 28.207 8.09961 28.9004C8.79297 29.5938 9.49121 30.0234 10.3115 30.3408C11.1074 30.6484 12.0156 30.8633 13.3437 30.9219C14.6768 30.9805 15.1016 30.9951 18.4951 30.9951C21.8887 30.9951 22.3135 30.9805 23.6465 30.9219C24.9746 30.8633 25.8877 30.6484 26.6787 30.3408C27.499 30.0234 28.1973 29.5938 28.8906 28.9004C29.584 28.207 30.0137 27.5088 30.3311 26.6885C30.6387 25.8926 30.8535 24.9844 30.9121 23.6563C30.9707 22.3232 30.9854 21.8984 30.9854 18.5049C30.9854 15.1113 30.9707 14.6865 30.9121 13.3535C30.8535 12.0254 30.6387 11.1123 30.3311 10.3213C30.0234 9.49121 29.5986 8.79297 28.9004 8.09961C28.207 7.40625 27.5088 6.97656 26.6885 6.65918C25.8926 6.35156 24.9844 6.13672 23.6563 6.07813C22.3184 6.01465 21.8936 6 18.5 6Z" fill="#000100"/>
<path d="M18.5 12.0791C14.9551 12.0791 12.0791 14.9551 12.0791 18.5C12.0791 22.0449 14.9551 24.9209 18.5 24.9209C22.0449 24.9209 24.9209 22.0449 24.9209 18.5C24.9209 14.9551 22.0449 12.0791 18.5 12.0791ZM18.5 22.665C16.2002 22.665 14.335 20.7998 14.335 18.5C14.335 16.2002 16.2002 14.335 18.5 14.335C20.7998 14.335 22.665 16.2002 22.665 18.5C22.665 20.7998 20.7998 22.665 18.5 22.665Z" fill="#000100"/>
<path d="M26.6738 11.8252C26.6738 12.6553 26 13.3242 25.1748 13.3242C24.3447 13.3242 23.6758 12.6504 23.6758 11.8252C23.6758 10.9951 24.3496 10.3262 25.1748 10.3262C26 10.3262 26.6738 11 26.6738 11.8252Z" fill="#000100"/>
</g>
<defs>
<clipPath id="clip0_132_259">
<rect width="25" height="25" fill="white" transform="translate(6 6)"/>
</clipPath>
</defs>
</svg>
