<svg width="37" height="37" viewBox="0 0 37 37" fill="none" xmlns="http://www.w3.org/2000/svg">
<rect width="37" height="37" rx="5" fill="#D8E7FF"/>
<g clip-path="url(#clip0_132_253)">
<path d="M29.1545 6H7.84549C7.35603 6 6.88663 6.19443 6.54053 6.54053C6.19443 6.88663 6 7.35603 6 7.84549V29.1545C6 29.644 6.19443 30.1134 6.54053 30.4595C6.88663 30.8056 7.35603 31 7.84549 31H29.1545C29.644 31 30.1134 30.8056 30.4595 30.4595C30.8056 30.1134 31 29.644 31 29.1545V7.84549C31 7.35603 30.8056 6.88663 30.4595 6.54053C30.1134 6.19443 29.644 6 29.1545 6ZM13.4514 27.2969H9.69271V15.3576H13.4514V27.2969ZM11.5694 13.7031C11.1431 13.7007 10.727 13.5721 10.3737 13.3334C10.0204 13.0948 9.74567 12.7568 9.58425 12.3622C9.42283 11.9675 9.38192 11.5339 9.4667 11.1161C9.55147 10.6982 9.75813 10.3149 10.0606 10.0144C10.363 9.71384 10.7477 9.50965 11.1661 9.42756C11.5845 9.34547 12.0178 9.38916 12.4114 9.55311C12.805 9.71706 13.1412 9.99392 13.3776 10.3488C13.6139 10.7036 13.7399 11.1205 13.7396 11.5469C13.7436 11.8323 13.6901 12.1157 13.5823 12.38C13.4745 12.6443 13.3146 12.8843 13.1121 13.0855C12.9095 13.2867 12.6686 13.4451 12.4036 13.5512C12.1385 13.6573 11.8549 13.709 11.5694 13.7031ZM27.3056 27.3073H23.5486V20.7847C23.5486 18.8611 22.7309 18.2674 21.6753 18.2674C20.5608 18.2674 19.467 19.1076 19.467 20.8333V27.3073H15.7083V15.3663H19.3229V17.0208H19.3715C19.7344 16.2865 21.0052 15.0313 22.9444 15.0313C25.0417 15.0313 27.3073 16.276 27.3073 19.9219L27.3056 27.3073Z" fill="#0A66C2"/>
</g>
<defs>
<clipPath id="clip0_132_253">
<rect width="25" height="25" fill="white" transform="translate(6 6)"/>
</clipPath>
</defs>
</svg>
