<svg width="37" height="37" viewBox="0 0 37 37" fill="none" xmlns="http://www.w3.org/2000/svg">
<rect width="37" height="37" rx="5" fill="#D8E7FF"/>
<g clip-path="url(#clip0_131_71)">
<path d="M18.5 31C25.4036 31 31 25.4036 31 18.5C31 11.5964 25.4036 6 18.5 6C11.5964 6 6 11.5964 6 18.5C6 25.4036 11.5964 31 18.5 31Z" fill="url(#paint0_linear_131_71)"/>
<path fill-rule="evenodd" clip-rule="evenodd" d="M11.6582 18.3681C15.3022 16.7804 17.7321 15.7338 18.9479 15.2281C22.4193 13.7842 23.1406 13.5334 23.6108 13.5251C23.7142 13.5233 23.9454 13.5489 24.0952 13.6704C24.2216 13.7731 24.2564 13.9117 24.2731 14.009C24.2897 14.1062 24.3105 14.3279 24.294 14.501C24.1059 16.4776 23.2919 21.2741 22.8778 23.4879C22.7026 24.4246 22.3575 24.7387 22.0235 24.7694C21.2976 24.8362 20.7464 24.2897 20.0433 23.8288C18.9432 23.1077 18.3217 22.6587 17.2538 21.955C16.0196 21.1417 16.8197 20.6947 17.523 19.9642C17.7071 19.7731 20.9054 16.8639 20.9673 16.6C20.975 16.567 20.9822 16.444 20.9091 16.379C20.836 16.3141 20.7282 16.3363 20.6503 16.354C20.54 16.379 18.7825 17.5407 15.3777 19.8389C14.8789 20.1815 14.427 20.3484 14.0222 20.3396C13.5759 20.33 12.7173 20.0873 12.0791 19.8798C11.2963 19.6254 10.6741 19.4908 10.7283 19.0587C10.7565 18.8336 11.0665 18.6034 11.6582 18.3681Z" fill="white"/>
</g>
<defs>
<linearGradient id="paint0_linear_131_71" x1="18.5" y1="6" x2="18.5" y2="30.8146" gradientUnits="userSpaceOnUse">
<stop stop-color="#2AABEE"/>
<stop offset="1" stop-color="#229ED9"/>
</linearGradient>
<clipPath id="clip0_131_71">
<rect width="25" height="25" fill="white" transform="translate(6 6)"/>
</clipPath>
</defs>
</svg>
