<svg width="55" height="55" viewBox="0 0 55 55" fill="none" xmlns="http://www.w3.org/2000/svg">
<path d="M17.5714 9H10.4286C9.63959 9 9 9.63959 9 10.4286V17.5714C9 18.3604 9.63959 19 10.4286 19H17.5714C18.3604 19 19 18.3604 19 17.5714V10.4286C19 9.63959 18.3604 9 17.5714 9Z" stroke="#8B8B8B" stroke-width="2" stroke-linecap="round" stroke-linejoin="round"/>
<path d="M17.5714 24H10.4286C9.63959 24 9 24.6396 9 25.4286V32.5714C9 33.3604 9.63959 34 10.4286 34H17.5714C18.3604 34 19 33.3604 19 32.5714V25.4286C19 24.6396 18.3604 24 17.5714 24Z" stroke="#8B8B8B" stroke-width="2" stroke-linecap="round" stroke-linejoin="round"/>
<path d="M17.5714 39H10.4286C9.63959 39 9 39.6396 9 40.4286V47.5714C9 48.3604 9.63959 49 10.4286 49H17.5714C18.3604 49 19 48.3604 19 47.5714V40.4286C19 39.6396 18.3604 39 17.5714 39Z" stroke="#8B8B8B" stroke-width="2" stroke-linecap="round" stroke-linejoin="round"/>
<path d="M29.0205 10H45.0205" stroke="#8B8B8B" stroke-width="2" stroke-linecap="round" stroke-linejoin="round"/>
<path d="M29.0205 14H45.0205" stroke="#8B8B8B" stroke-width="2" stroke-linecap="round" stroke-linejoin="round"/>
<path d="M29.0205 26H45.0205" stroke="#8B8B8B" stroke-width="2" stroke-linecap="round" stroke-linejoin="round"/>
<path d="M29.0205 30H45.0205" stroke="#8B8B8B" stroke-width="2" stroke-linecap="round" stroke-linejoin="round"/>
<path d="M29.0205 42H45.0205" stroke="#8B8B8B" stroke-width="2" stroke-linecap="round" stroke-linejoin="round"/>
<path d="M29.0205 46H45.0205" stroke="#8B8B8B" stroke-width="2" stroke-linecap="round" stroke-linejoin="round"/>
</svg>
